<svg xmlns="http://www.w3.org/2000/svg" xmlns:xlink="http://www.w3.org/1999/xlink" viewBox="0 0 584.13 449.7"><defs><style>.cls-1,.cls-16,.cls-17,.cls-19,.cls-22,.cls-24,.cls-31,.cls-32,.cls-44,.cls-45,.cls-47{fill:none;}.cls-2{isolation:isolate;}.cls-3{fill:url(#linear-gradient);}.cls-4{fill:url(#linear-gradient-2);}.cls-5{fill:url(#linear-gradient-3);}.cls-6{fill:#3f3767;}.cls-7{fill:url(#linear-gradient-4);}.cls-8{opacity:0.15;}.cls-40,.cls-8{mix-blend-mode:overlay;}.cls-9{opacity:0.05;}.cls-10{fill:url(#linear-gradient-5);}.cls-11{fill:url(#linear-gradient-6);}.cls-12{fill:url(#linear-gradient-7);}.cls-13{fill:url(#linear-gradient-8);}.cls-14{fill:url(#linear-gradient-9);}.cls-15{fill:url(#linear-gradient-10);}.cls-16,.cls-17,.cls-24,.cls-31,.cls-32,.cls-44,.cls-45{stroke-miterlimit:10;}.cls-16{stroke:url(#linear-gradient-11);}.cls-17{stroke:url(#linear-gradient-12);}.cls-18{fill:url(#linear-gradient-13);}.cls-19,.cls-22,.cls-47{stroke-linecap:round;stroke-linejoin:round;}.cls-19,.cls-47{stroke-width:2px;}.cls-19{stroke:url(#linear-gradient-14);}.cls-20{fill:url(#linear-gradient-15);}.cls-21{fill:url(#linear-gradient-16);}.cls-22{stroke:#849dff;}.cls-23{fill:#fff;}.cls-24{stroke:url(#linear-gradient-17);}.cls-25{fill:url(#linear-gradient-18);}.cls-26{fill:url(#linear-gradient-19);}.cls-27{fill:url(#linear-gradient-20);}.cls-28{fill:url(#linear-gradient-21);}.cls-29{fill:url(#linear-gradient-22);}.cls-30{fill:url(#linear-gradient-23);}.cls-31{stroke:url(#linear-gradient-24);}.cls-32{stroke:#3f3767;}.cls-33{fill:#ebebff;}.cls-34{fill:#726c9e;}.cls-35{clip-path:url(#clip-path);}.cls-36{fill:url(#linear-gradient-25);}.cls-37{fill:url(#linear-gradient-26);}.cls-38{fill:url(#linear-gradient-27);}.cls-39{fill:#acabd3;}.cls-40{opacity:0.19;}.cls-41{fill:#4e4a7c;}.cls-42{fill:url(#linear-gradient-28);}.cls-43{fill:url(#linear-gradient-29);}.cls-44{stroke:url(#linear-gradient-30);}.cls-45{stroke:url(#linear-gradient-31);}.cls-46{fill:url(#linear-gradient-32);}.cls-47{stroke:url(#linear-gradient-33);}.cls-48{fill:url(#linear-gradient-34);}.cls-49{fill:url(#linear-gradient-35);}.cls-50{fill:url(#linear-gradient-36);}.cls-51{fill:url(#linear-gradient-37);}.cls-52{fill:url(#linear-gradient-38);}.cls-53{fill:url(#linear-gradient-39);}.cls-54{fill:url(#linear-gradient-40);}.cls-55{fill:url(#linear-gradient-41);}</style><linearGradient id="linear-gradient" x1="355.37" y1="122.1" x2="365.98" y2="139.29" gradientUnits="userSpaceOnUse"><stop offset="0" stop-color="#ffc2c2"/><stop offset="1" stop-color="#faa"/></linearGradient><linearGradient id="linear-gradient-2" x1="578.95" y1="164.52" x2="549.28" y2="184.42" xlink:href="#linear-gradient"/><linearGradient id="linear-gradient-3" x1="403.26" y1="315.37" x2="425.8" y2="256.02" gradientUnits="userSpaceOnUse"><stop offset="0" stop-color="#8bbbff"/><stop offset="1" stop-color="#7e84ff"/></linearGradient><linearGradient id="linear-gradient-4" x1="492.87" y1="198.06" x2="451.05" y2="212.33" gradientUnits="userSpaceOnUse"><stop offset="0" stop-color="#d4daff"/><stop offset="1" stop-color="#fff"/></linearGradient><linearGradient id="linear-gradient-5" x1="362.39" y1="189.88" x2="454.68" y2="189.88" xlink:href="#linear-gradient-3"/><linearGradient id="linear-gradient-6" x1="449.72" y1="159.73" x2="471.62" y2="154.09" xlink:href="#linear-gradient"/><linearGradient id="linear-gradient-7" x1="455.07" y1="181.73" x2="462.24" y2="168.71" xlink:href="#linear-gradient"/><linearGradient id="linear-gradient-8" x1="451.32" y1="227.66" x2="559.95" y2="227.66" xlink:href="#linear-gradient-3"/><linearGradient id="linear-gradient-9" x1="392.04" y1="420.59" x2="418.36" y2="420.59" gradientUnits="userSpaceOnUse"><stop offset="0" stop-color="#5e74d6"/><stop offset="1" stop-color="#4153af"/></linearGradient><linearGradient id="linear-gradient-10" x1="303" y1="374.23" x2="345.2" y2="374.23" xlink:href="#linear-gradient-9"/><linearGradient id="linear-gradient-11" x1="398.59" y1="419.04" x2="411.64" y2="419.04" xlink:href="#linear-gradient-4"/><linearGradient id="linear-gradient-12" x1="311.42" y1="370.53" x2="325.08" y2="370.53" xlink:href="#linear-gradient-4"/><linearGradient id="linear-gradient-13" x1="353.2" y1="131.94" x2="376.58" y2="138.42" xlink:href="#linear-gradient"/><linearGradient id="linear-gradient-14" x1="346.24" y1="75.17" x2="351.87" y2="75.17" xlink:href="#linear-gradient-3"/><linearGradient id="linear-gradient-15" x1="395.18" y1="28.53" x2="344.09" y2="114.17" xlink:href="#linear-gradient-3"/><linearGradient id="linear-gradient-16" x1="373.33" y1="66.31" x2="346.88" y2="110.66" xlink:href="#linear-gradient-3"/><linearGradient id="linear-gradient-17" x1="138.97" y1="378.45" x2="152.58" y2="378.45" xlink:href="#linear-gradient-3"/><linearGradient id="linear-gradient-18" x1="76.23" y1="236.93" x2="70.59" y2="205.75" gradientTransform="translate(28.95 -7.71) rotate(7.76)" xlink:href="#linear-gradient-4"/><linearGradient id="linear-gradient-19" x1="59.4" y1="161.09" x2="17.85" y2="131.69" xlink:href="#linear-gradient"/><linearGradient id="linear-gradient-20" x1="55.53" y1="177.4" x2="42.01" y2="163.38" xlink:href="#linear-gradient"/><linearGradient id="linear-gradient-21" x1="65.54" y1="243.38" x2="16.43" y2="208.63" xlink:href="#linear-gradient"/><linearGradient id="linear-gradient-22" x1="102.84" y1="220.93" x2="78.39" y2="203.63" xlink:href="#linear-gradient"/><linearGradient id="linear-gradient-23" x1="131.73" y1="410.73" x2="76.44" y2="260.59" xlink:href="#linear-gradient-3"/><linearGradient id="linear-gradient-24" x1="139.06" y1="428.95" x2="152.9" y2="428.95" xlink:href="#linear-gradient-3"/><clipPath id="clip-path"><rect class="cls-1" x="178.96" y="61.77" width="145.75" height="120.41"/></clipPath><linearGradient id="linear-gradient-25" x1="152.82" y1="72.62" x2="163.43" y2="89.81" xlink:href="#linear-gradient"/><linearGradient id="linear-gradient-26" x1="376.4" y1="115.04" x2="346.73" y2="134.94" xlink:href="#linear-gradient"/><linearGradient id="linear-gradient-27" x1="200.71" y1="265.89" x2="223.25" y2="206.54" xlink:href="#linear-gradient-3"/><linearGradient id="linear-gradient-28" x1="189.49" y1="371.11" x2="215.81" y2="371.11" xlink:href="#linear-gradient-9"/><linearGradient id="linear-gradient-29" x1="100.45" y1="324.75" x2="142.65" y2="324.75" xlink:href="#linear-gradient-9"/><linearGradient id="linear-gradient-30" x1="196.03" y1="369.56" x2="209.09" y2="369.56" xlink:href="#linear-gradient-4"/><linearGradient id="linear-gradient-31" x1="108.87" y1="321.05" x2="122.52" y2="321.05" xlink:href="#linear-gradient-4"/><linearGradient id="linear-gradient-32" x1="150.65" y1="82.46" x2="174.03" y2="88.94" xlink:href="#linear-gradient"/><linearGradient id="linear-gradient-33" x1="143.69" y1="25.69" x2="149.32" y2="25.69" xlink:href="#linear-gradient-3"/><linearGradient id="linear-gradient-34" x1="192.62" y1="-20.95" x2="141.54" y2="64.69" xlink:href="#linear-gradient-3"/><linearGradient id="linear-gradient-35" x1="170.78" y1="16.83" x2="144.33" y2="61.18" xlink:href="#linear-gradient-3"/><linearGradient id="linear-gradient-36" x1="291.86" y1="186.57" x2="230.76" y2="264.71" xlink:href="#linear-gradient-3"/><linearGradient id="linear-gradient-37" x1="185.44" y1="198.8" x2="96.98" y2="87.24" xlink:href="#linear-gradient-3"/><linearGradient id="linear-gradient-38" x1="180.19" y1="185.71" x2="166.29" y2="242.81" xlink:href="#linear-gradient-3"/><linearGradient id="linear-gradient-39" x1="65.47" y1="102.4" x2="99.52" y2="-10.04" xlink:href="#linear-gradient-4"/><linearGradient id="linear-gradient-40" x1="-1074.37" y1="420.45" x2="-1040.31" y2="308.01" gradientTransform="matrix(-1, 0, 0, 1, -820.17, 0)" xlink:href="#linear-gradient-4"/><linearGradient id="linear-gradient-41" x1="-1308.13" y1="155.04" x2="-1274.07" y2="42.6" gradientTransform="matrix(-1, 0, 0, 1, -820.17, 0)" xlink:href="#linear-gradient-4"/></defs><title>Ativo 1</title><g class="cls-2"><g id="Camada_2" data-name="Camada 2"><g id="OBJECTS"><path class="cls-3" d="M361.64,127.7s-3.19-4.51-1.78-6.48,5.44,2.35,7,6S374,142.07,374,142.07l-11.46,5.13s-2.53-5.51-5.45-8.51S361.64,127.7,361.64,127.7Z"/><path class="cls-4" d="M553.45,175.83c1.18-1.55,6.91-12.73,8.92-13.29s-.14,4.46.66,5,8.69-9.34,10.71-9.25-5.17,8.36-4.18,9.21,9.48-6.72,10.75-5.36-7.93,6.44-7.7,8.13,11.08-2.45,11.5-1-11.12,5.31-11.45,6.53,6.67.18,6,1.92S562.47,180,558.2,184"/><path class="cls-5" d="M373.14,235.18c-3.84,5.44,2.59,17.13,7.85,21.59s36.81-10.37,44.89,4.47,3.75,19.53,15,24.41,35.57,3.36,36.29-5.46-12.81-33-12.81-33l-10.52-5.26-29.08-7.3-21.07-4-11.27-.94S380.12,225.28,373.14,235.18Z"/><path class="cls-6" d="M433.48,304.32c-23.07,38.46-14.33,83.55-16.08,91.59a6,6,0,0,1-1.4,2.67l-.36.38c-3.94,4-13.19,5.58-19.37,3.36a8.78,8.78,0,0,1-5.44-4.66c-8.38-42.3-2.09-74.47,16.08-124.11-38.45,21.67-60.47,86.7-62.22,89.15a4.54,4.54,0,0,1-1.53.68,13.26,13.26,0,0,1-2.34.36,47.52,47.52,0,0,1-14.92-1.95c-4-1.18-7.09-2.76-7.09-4.33,0-4.2,0-19.58,19.93-58s57.69-66.09,57.69-66.09a29.75,29.75,0,0,1,5.78-4c14.83-7.8,34.05-1.87,45.89,5.56,5.48,3.44,9.38,7.2,10.53,10.06a5,5,0,0,1,.33,1.19C460.14,255.46,456.56,265.86,433.48,304.32Z"/><path class="cls-7" d="M476,196.11,458.63,245l-3.12,8.81a114.36,114.36,0,0,0-9.17-7.35c-19.42-14-36.6-16.64-44.13-17.08a33.67,33.67,0,0,0-4,0s41.35-52.42,49.46-58.59a2.64,2.64,0,0,1,1.07-.58c4.19-.43,20.45,2.18,22.93,5.68a18.94,18.94,0,0,1,3.11,6.34Z"/><path class="cls-8" d="M433.48,304.32c-23.07,38.46-14.33,83.55-16.08,91.59a6,6,0,0,1-1.4,2.67l-.36.38c-1.86-4.25-7-18.89-4-46.07,3.57-32.87,17.09-54.47,28-75.69,6.64-12.94,6.09-21.35,6.75-30.75a114.36,114.36,0,0,1,9.17,7.35l3.12-8.81a5,5,0,0,1,.33,1.19C460.14,255.46,456.56,265.86,433.48,304.32Z"/><path class="cls-9" d="M476,196.11,458.63,245l-3.12,8.81a114.36,114.36,0,0,0-9.17-7.35,63.75,63.75,0,0,1,1.76-11.52,60.39,60.39,0,0,1,3.22-9.24c9.28-21.26,12.68-37.33,3.36-44.65s-6.83-9.91-6.83-9.91l-.22-.39a2.64,2.64,0,0,1,1.07-.58c4.19-.43,20.45,2.18,22.93,5.68a18.94,18.94,0,0,1,3.11,6.34Z"/><path class="cls-10" d="M454.68,170.81c-5.33,1.48-7.14,17.24-14.29,26.39-.42.53-.85,1.05-1.31,1.53-8.26,8.79-36.84,32.78-39.85,41-12.59-11.41-25.05-5.9-26.1-4.59,3.15-11.66,12.46-18.48,24.39-22.68s20.45-9.18,22.29-12.06c-38.42-10.88-55.33-43.26-57.42-54.14,1.17-4.46,9-6.42,10.09-6.3s23.46,23.47,36,27.08c9.06,2.59,26.11,1.42,37,2C449.81,169.26,453.14,169.74,454.68,170.81Z"/><path class="cls-11" d="M468.32,161.5a9,9,0,0,0,1.3,5.58,12.16,12.16,0,0,1-2.23,1.48,15.36,15.36,0,0,1-13.7,0,13.66,13.66,0,0,1-6.48-6.45c-2.46-5.32.52-10.93,2.84-14.12a23.14,23.14,0,0,1,2.21-2.66c3.15,4.26,15.72.72,17.3,2.69a2.67,2.67,0,0,1,.33,2c-.33,2.65-2.46,6.39-2.16,6.49s2.81-2,3.54-.39C473,159.82,468.32,161.5,468.32,161.5Z"/><path class="cls-6" d="M469.62,167.08a9,9,0,0,1-1.3-5.58s4.64-1.68,2.95-5.37c-.73-1.57-3.15.52-3.54.39s3.4-6.55,1.83-8.52-14.15,1.57-17.3-2.69c-4.62-2.16-11.87-15.71-3.56-21s16.86,5.33,21.58,12.85,12.15,2.62,12.94,13.28S470.37,160.33,469.62,167.08Z"/><path class="cls-12" d="M467.39,174.54a3.69,3.69,0,0,1-.43,1.3c-3.65,6.55-13.37,2.62-13.28,0,0-1.37,0-3.7,0-5.61,0-.63,0-1.21,0-1.69a15.36,15.36,0,0,0,13.7,0C467.12,170.82,467.66,172.85,467.39,174.54Z"/><path class="cls-13" d="M559.93,182.28a11.1,11.1,0,0,1-.24,1.6C535,215.69,492.25,212,492.25,212s-7.38,11.42-10.69,21.91,2.09,36.19-4.37,46.33c.15-4.15-2.38-9.25-6.48-13.6-4.88-5.18-12-9.29-19.39-9.48a142.2,142.2,0,0,0,9.25-35.31,94.58,94.58,0,0,1,4.88-20.07c2.31-6.32,4.73-10.91,6.18-14.72,2.6-6.79.15-10.94,0-11.17a52.48,52.48,0,0,0,10.11,5.94A56.36,56.36,0,0,0,508.83,187c14.48-.93,41.43-11.71,43.87-11.88a7.37,7.37,0,0,1,6,2.59A6.44,6.44,0,0,1,559.93,182.28Z"/><path class="cls-14" d="M417.31,433.8c-3.14,12.32-22.54,11.28-24.77-.52-2-10.72,2.65-25.66,3.73-31,6.38,2.29,16,.49,19.73-3.74C417.18,405.69,419.82,424,417.31,433.8Z"/><path class="cls-15" d="M344.34,381.67c-2.63.09-16,3.76-22.2,4.54s-20.37,1.31-19.05-5.51,9.08-9.79,13.45-11.44c3.63-1.38,8-6,9.36-7.47,5.75,1.69,13.51,2.6,17.26,1.59C343.34,369.14,346.75,381.59,344.34,381.67Z"/><path class="cls-16" d="M399.4,414.53s7.17-2.27,11,0-8.65.35-11,4.2,9.35-.53,10.31,3.58-5.59,1.05-10,2.27"/><path class="cls-17" d="M311.67,371.31a10.39,10.39,0,0,1,3.74,4c1.22,2.53,3.84.52,2.62-2.45s-1.81-6.47.32-6.21,2.91,6.56,5.27,6-.17-6.9-2.09-8.12"/><path class="cls-8" d="M412.69,256.77l-5.78,16.78c-38.45,21.67-60.47,86.7-62.22,89.15a4.54,4.54,0,0,1-1.53.68,13.26,13.26,0,0,1-2.34.36c.7-11.61,10.91-25.39,12.78-35.21,2.1-11,11.28-18.09,16.78-33.83s13.9-12.58,21.66-23.86S412.69,256.77,412.69,256.77Z"/><path class="cls-8" d="M559.93,182.28a6.44,6.44,0,0,0-1.2-4.55,14,14,0,0,0,4.44-8C565.28,174.66,561.88,179.86,559.93,182.28Z"/><path class="cls-6" d="M365.85,154.22h0a1.44,1.44,0,0,1-1.74-1.06L346,79.08a1.44,1.44,0,0,1,1.06-1.74h0a1.44,1.44,0,0,1,1.74,1.06l18.09,74.08A1.44,1.44,0,0,1,365.85,154.22Z"/><path class="cls-18" d="M355.07,124.6s7.14,1.13,7.89,3.76,2.63,12.39,0,13-8.36-.38-9.3-2.72S351.2,123.63,355.07,124.6Z"/><line class="cls-19" x1="347.24" y1="78.74" x2="350.87" y2="71.6"/><rect class="cls-6" x="351.31" y="59.61" width="9.3" height="14.37" rx="1.55" transform="translate(141.69 -225.2) rotate(43.1)"/><rect class="cls-6" x="356.11" y="67.49" width="9.3" height="7.61" rx="1.13" transform="translate(146.06 -227.26) rotate(43.1)"/><rect class="cls-6" x="360.05" y="48.33" width="1.69" height="12.77" transform="translate(134.78 -231.83) rotate(43.1)"/><path class="cls-20" d="M377.07,63.64l2.13,1.11-2.36.43A3.47,3.47,0,0,0,374.36,67l-1.11,2.13-.42-2.37A3.51,3.51,0,0,0,371,64.29l-2.13-1.11,2.37-.43a3.49,3.49,0,0,0,2.48-1.82l1.11-2.13.42,2.37A3.47,3.47,0,0,0,377.07,63.64Z"/><path class="cls-21" d="M364,84.49l1.1.58-1.23.22a1.82,1.82,0,0,0-1.28.94L362,87.34l-.22-1.23a1.81,1.81,0,0,0-.95-1.28l-1.1-.58,1.23-.22a1.79,1.79,0,0,0,1.28-.94l.57-1.1.22,1.22A1.79,1.79,0,0,0,364,84.49Z"/><line class="cls-22" x1="367.9" y1="74.29" x2="386.06" y2="84.66"/><line class="cls-22" x1="365.06" y1="78.05" x2="368.87" y2="84.66"/><path class="cls-6" d="M460.51,153.89a1.16,1.16,0,1,1-2.18-.6,1.16,1.16,0,1,1,2.18.6Z"/><path class="cls-6" d="M454.07,152.47a1.16,1.16,0,1,1-2.17-.6,1.16,1.16,0,1,1,2.17.6Z"/><path class="cls-23" d="M454.14,159.63l8.83-1.89s.73,4.33-3.43,5.17S454.14,159.63,454.14,159.63Z"/><path class="cls-8" d="M481.56,233.87c-3.32,10.49,2.09,36.19-4.37,46.33.15-4.15-2.38-9.25-6.48-13.6,5.12-15.2,2.19-36.78,10.2-46.31,9.95-11.83,11.34-8.33,11.34-8.33S484.87,223.38,481.56,233.87Z"/><path class="cls-8" d="M445.56,169.05c4.25.21,7.58.69,9.12,1.76-5.33,1.48-7.14,17.24-14.29,26.39.46-6.08,6.32-15.3,5.89-19.6C446,174.45,445.7,171.1,445.56,169.05Z"/><path class="cls-8" d="M481.75,181.79c-4.64,3.33-9.38,9.59-13.05,16.46a9.78,9.78,0,0,1-3.25,3.49c2.31-6.32,4.73-10.91,6.18-14.72,2.6-6.79.15-10.94,0-11.17A52.48,52.48,0,0,0,481.75,181.79Z"/><path class="cls-8" d="M467.39,174.54a10.57,10.57,0,0,1-1.13-1.16c-1.9-2.2-9.65-2.95-12.55-3.15,0-.63,0-1.21,0-1.69a15.36,15.36,0,0,0,13.7,0C467.12,170.82,467.66,172.85,467.39,174.54Z"/><path class="cls-8" d="M469.89,150A39.78,39.78,0,0,1,450.05,148a23.14,23.14,0,0,1,2.21-2.66c3.15,4.26,15.72.72,17.3,2.69A2.67,2.67,0,0,1,469.89,150Z"/><path class="cls-6" d="M138.92,361.82s12.74,17.41,17.87,25.42-2.06,23-17.87,10-10.17-35.44-10.17-35.44Z"/><path class="cls-24" d="M139.36,376.82s4.69-5.83,8.73-4.61-6.7,4.07-6.45,7.62,7.3-5.08,10-2.45-8.57,5.49-8.56,8"/><path class="cls-6" d="M100.45,257.64a10,10,0,0,0-1-.15,36.45,36.45,0,0,0-8.82.36,109.74,109.74,0,0,0-18,4.25c-13.31,4.28-26.79,11.08-30.92,18.71C35,268,29.69,245.55,26.47,229.48c-.89-4.44-1.62-8.4-2.17-11.53C10.25,218.8,2,229,2,229c-.36-1.18-.69-2.41-1-3.67-5.89-25.58,14.37-55.64,38.1-59.9a4.2,4.2,0,0,1,2.87-.56c2.5.45,7.89,1.5,12.15,2.32l-1-1.49c11.74-.1,27.77,11.17,37.4,24.19l.21.28c-1.48,5.48-7,11-9.58,13.4C83.59,215.81,90.68,248,100.45,257.64Z"/><path class="cls-8" d="M72.64,262.1c-13.31,4.28-26.79,11.08-30.92,18.71C35,268,29.69,245.55,26.47,229.48l2-11.52s-3-11.12,1.34-17.55c8.65,9.15,2.5,18.76,8.39,25.68s22,13.15,22.13,22.16C60.35,254.46,67.71,258.61,72.64,262.1Z"/><rect class="cls-25" x="62.91" y="195.72" width="16.73" height="27.55" rx="2.25" transform="translate(-27.64 11.55) rotate(-7.76)"/><path class="cls-6" d="M61.09,147.3l-1-3.5s-2,1.17-3.89-2.14c-2.18,3.73-10,3.9-12,.7-.48,3.56-4.79,4.1-6.55,3.25,0,2.66-1.23,3.35-1.23,3.35s-3.35.32-3.4,3.47,4.47,2.76,4.47,2.76.22,5.92-.58,6.24a3.52,3.52,0,0,1-1.11,0c-2.93-.21-10.37-2-9.12-8.44-4.43,1.33-8-2.4-8.15-8s4.1-5.91,4.1-5.91-1.81-9.75,6-15,14.11,1,14.11,1,2.46-4.58,9-4.37,6.76,6.39,6.76,6.39a4.81,4.81,0,0,1,4.74-1.23c5.65,1.36,3,10.93.74,12.37C68,140,67.21,148.6,61.09,147.3Z"/><path class="cls-26" d="M53,166.24c-.47.07-.95.13-1.46.17-5,.38-8.55-.24-11-1.22a9.49,9.49,0,0,1-4.75-3.74,3.52,3.52,0,0,0,1.11,0c.8-.32.58-6.24.58-6.24s-4.53.38-4.47-2.76,3.4-3.47,3.4-3.47,1.23-.69,1.23-3.35c1.76.85,6.07.31,6.55-3.25,2,3.2,9.81,3,12-.7,1.92,3.31,3.89,2.14,3.89,2.14l1,3.5S65.85,164.06,53,166.24Z"/><path class="cls-27" d="M53.43,174.75c-3.07,3-11.65.76-13.08-2.06-1.05-2-.41-5.93-.1-8.42,2.85,1.16,7,1.89,12.9,1.44q.9-.08,1.71-.21C54.53,168.84,55.92,172.32,53.43,174.75Z"/><path class="cls-28" d="M52.49,252c-22.87,6.61-43.36.14-50.48-23,0,0,9.86-12.23,26.41-11,2.23,6.75,6.6,14.1,13.43,14.89,13,1.51,18.6-7.92,20.11-9.89s-.64-11.24,1.24-12,0,5.82,2.34,4.7,2.35-9.21,6.58-8.08S76.53,245.06,52.49,252Z"/><path class="cls-29" d="M93.69,229c-15.53,4.22-22.17-11.68-21-16.69s5.83,1.4,5.83-.47c0-.91-.08-1.72-.09-2.34s0-1.15.34-1.36c1.25-.91,1.21,2.49,2.07,3.79v0a1.23,1.23,0,0,0,.36.36,0,0,0,0,1,0,0,.54.54,0,0,0,.19,0c1-.09.66-6.16-1.58-7.58,0,0,7.76-6.33,10.43-13a11.79,11.79,0,0,0,.54-1.58C100.32,203.23,109.1,224.82,93.69,229Z"/><path class="cls-6" d="M65,201.17a.77.77,0,1,1-.77-.76A.77.77,0,0,1,65,201.17Z"/><path class="cls-8" d="M92.4,206.09a9.08,9.08,0,0,1-11,6.29c1-.09.66-6.16-1.58-7.58,0,0,7.76-6.33,10.43-13C90.16,196.65,93.29,201.69,92.4,206.09Z"/><path class="cls-30" d="M137.63,363.83s8.27,27.79,6,38.81a20.51,20.51,0,0,1-8.87,7c-4.76,1.89-9.91,1.65-13.72-1.25a13.51,13.51,0,0,1-4.2-5.72c-4.76-11.77-23.79-56.85-34.81-67.11-8.57-8-25.77-24.92-34.89-41.18a48.92,48.92,0,0,1-5.43-13.54c6.1-11.29,32.67-20.74,48.89-23a36.45,36.45,0,0,1,8.82-.36c.59.3,1.18.61,1.76.94s1.27.73,1.9,1.12c23.44,14.49,37.83,49.72,41.77,89.9.34,3.51.61,7,.79,10.62C144.9,362.32,137.63,363.83,137.63,363.83Z"/><path class="cls-8" d="M145.65,360.07c-.75,2.25-8,3.76-8,3.76s-15.77-58.1-39.81-79.39c15-.25,17.28,15,26.79,25.79,9.24,10.45,11.88,32.2,20.25,39.22C145.2,353,145.47,356.49,145.65,360.07Z"/><path class="cls-6" d="M153.26,449.59c-9.87,1.7-34.09-17.93-35.13-23.56-.84-4.59,2.36-12.91,2.92-17.67,5.64,4.3,14.25,2.76,20.15-2.92A34,34,0,0,0,151.47,430C161.42,439.92,163.12,447.9,153.26,449.59Z"/><path class="cls-31" d="M139.36,426.4s5.07-3.76,8.36-2.63-6.3,3.29-6.2,6.57,7.51-3.47,10.23-1.78-3.94,3.19-5,6.1"/><path class="cls-6" d="M50,151.9c0,1-.55,1.79-1.23,1.79s-1.24-.8-1.24-1.79.55-1.78,1.24-1.78S50,150.92,50,151.9Z"/><path class="cls-6" d="M57.43,151.9c0,1-.56,1.79-1.24,1.79S55,152.89,55,151.9s.55-1.78,1.23-1.78S57.43,150.92,57.43,151.9Z"/><path class="cls-32" d="M45.36,156.29s1.86,4.26,9.25,3.63"/><path class="cls-8" d="M134.77,409.61c-4.76,1.89-9.91,1.65-13.72-1.25a13.51,13.51,0,0,1-4.2-5.72c-4.76-11.77-23.79-56.85-34.81-67.11-8.57-8-25.77-24.92-34.89-41.18a48.92,48.92,0,0,1-5.43-13.54c6.1-11.29,32.67-20.74,48.89-23a36.45,36.45,0,0,1,8.82-.36c.59.3,1.18.61,1.76.94s1.27.73,1.9,1.12c-6.67,1.33-26.88,5.8-34.82,13.12-9.58,8.83-10.14,15.21-8.07,21.6S89.8,322.07,97.82,338C105.3,352.94,121.36,401,134.77,409.61Z"/><path class="cls-33" d="M344.54,57.28a2.65,2.65,0,0,0-1.87-4.52H173.59a2.65,2.65,0,0,0-2.65,2.64V206.84a2.65,2.65,0,0,0,2.65,2.65H330.07a2.65,2.65,0,0,0,2.65-2.65V70.19a2.68,2.68,0,0,1,.77-1.87Z"/><rect class="cls-34" x="178.96" y="61.77" width="145.75" height="120.41"/><g class="cls-35"><path class="cls-36" d="M159.09,78.22s-3.19-4.51-1.78-6.48,5.44,2.35,7,6,7.14,14.84,7.14,14.84L160,97.72s-2.54-5.51-5.45-8.51S159.09,78.22,159.09,78.22Z"/><path class="cls-37" d="M350.9,126.35c1.18-1.55,6.9-12.73,8.92-13.29s-.14,4.46.66,5,8.69-9.34,10.71-9.25S366,117.19,367,118s9.48-6.72,10.75-5.36-7.94,6.44-7.7,8.13,11.08-2.45,11.5-1-11.13,5.31-11.45,6.53,6.66.18,6,1.92-16.2,2.26-20.48,6.2Z"/><path class="cls-38" d="M170.58,185.7c-3.84,5.45,2.6,17.13,7.86,21.59s36.81-10.37,44.88,4.47,3.76,19.53,15,24.41,35.57,3.36,36.28-5.46-12.8-33-12.8-33l-10.52-5.26-29.08-7.3-21.07-4-11.27-.94S177.57,175.8,170.58,185.7Z"/><path class="cls-6" d="M230.93,254.84c-23.07,38.46-14.33,83.55-16.08,91.59a6,6,0,0,1-1.4,2.67l-.36.38c-3.94,4-13.19,5.58-19.37,3.37a8.8,8.8,0,0,1-5.44-4.67c-8.39-42.3-2.1-74.47,16.08-124.11-38.45,21.68-60.47,86.7-62.23,89.15a4.48,4.48,0,0,1-1.52.68,12.38,12.38,0,0,1-2.35.36,47.5,47.5,0,0,1-14.91-1.95c-4-1.18-7.09-2.76-7.09-4.33,0-4.2,0-19.58,19.93-58s57.69-66.09,57.69-66.09a29.45,29.45,0,0,1,5.78-4c14.83-7.8,34.05-1.87,45.89,5.56,5.48,3.44,9.38,7.2,10.53,10.06a5,5,0,0,1,.33,1.19C257.59,206,254,216.38,230.93,254.84Z"/><path class="cls-39" d="M273.41,146.63l-17.33,48.88L253,204.32a114.36,114.36,0,0,0-9.17-7.35c-19.42-14-36.6-16.64-44.13-17.08a33.67,33.67,0,0,0-4,0s41.34-52.42,49.46-58.59a2.68,2.68,0,0,1,1.06-.58c4.2-.43,20.46,2.18,22.94,5.68a18.94,18.94,0,0,1,3.11,6.34Z"/><path class="cls-8" d="M230.93,254.84c-23.07,38.46-14.33,83.55-16.08,91.59a6,6,0,0,1-1.4,2.67l-.36.38c-1.87-4.25-7-18.89-4-46.07,3.57-32.87,17.09-54.46,28-75.69,6.64-12.94,6.09-21.35,6.75-30.75a114.36,114.36,0,0,1,9.17,7.35l3.12-8.81a5,5,0,0,1,.33,1.19C257.59,206,254,216.38,230.93,254.84Z"/><path class="cls-40" d="M273.41,146.63l-17.33,48.88L253,204.32a114.36,114.36,0,0,0-9.17-7.35,62.88,62.88,0,0,1,1.76-11.52,61.37,61.37,0,0,1,3.21-9.24c9.29-21.26,12.69-37.33,3.37-44.65s-6.83-9.91-6.83-9.91l-.22-.39a2.68,2.68,0,0,1,1.06-.58c4.2-.43,20.46,2.18,22.94,5.68a18.94,18.94,0,0,1,3.11,6.34Z"/><path class="cls-41" d="M252.13,121.33c-5.33,1.48-7.14,17.24-14.29,26.39-.42.53-.85,1.05-1.31,1.53-8.26,8.79-36.84,32.78-39.86,41-12.58-11.41-25-5.9-26.09-4.59C173.73,174,183,167.22,195,163s20.45-9.18,22.29-12.06c-38.42-10.88-55.33-43.26-57.43-54.14,1.18-4.46,9-6.42,10.1-6.3S193.39,114,206,117.6c9.05,2.59,26.11,1.42,37,2C247.26,119.78,250.59,120.26,252.13,121.33Z"/><path class="cls-33" d="M265.76,112a9.08,9.08,0,0,0,1.31,5.58,13.54,13.54,0,0,1-2.23,1.49,15.39,15.39,0,0,1-13.7,0,13.62,13.62,0,0,1-6.48-6.45c-2.47-5.32.52-10.93,2.84-14.12a23.14,23.14,0,0,1,2.21-2.66c3.14,4.26,15.72.72,17.3,2.69a2.67,2.67,0,0,1,.33,2c-.33,2.65-2.47,6.39-2.16,6.49s2.81-2,3.53-.39C270.41,110.34,265.76,112,265.76,112Z"/><path class="cls-6" d="M267.07,117.6a9.08,9.08,0,0,1-1.31-5.58s4.65-1.68,2.95-5.37c-.72-1.57-3.14.53-3.53.39s3.4-6.55,1.83-8.52-14.16,1.57-17.3-2.69c-4.62-2.16-11.87-15.71-3.57-21S263,80.12,267.73,87.64s12.15,2.62,12.94,13.28S267.82,110.85,267.07,117.6Z"/><path class="cls-33" d="M264.84,125.06a3.69,3.69,0,0,1-.43,1.3c-3.65,6.55-13.37,2.62-13.29,0,0-1.37,0-3.7,0-5.61,0-.63,0-1.21,0-1.69a15.39,15.39,0,0,0,13.7,0C264.56,121.34,265.11,123.37,264.84,125.06Z"/><path class="cls-41" d="M357.38,132.8a11.1,11.1,0,0,1-.24,1.6c-24.65,31.81-67.44,28.08-67.44,28.08S282.32,173.9,279,184.39s2.09,36.19-4.37,46.33c.15-4.15-2.38-9.25-6.48-13.6-4.88-5.18-12-9.29-19.4-9.48A142.06,142.06,0,0,0,258,172.33a94,94,0,0,1,4.88-20.07c2.3-6.32,4.73-10.91,6.18-14.72,2.6-6.79.15-10.94,0-11.17a52.48,52.48,0,0,0,10.11,5.94,56.34,56.34,0,0,0,27.07,5.23c14.49-.93,41.44-11.71,43.88-11.88a7.37,7.37,0,0,1,6,2.59A6.44,6.44,0,0,1,357.38,132.8Z"/><path class="cls-42" d="M214.76,384.32c-3.14,12.32-22.54,11.28-24.77-.52-2-10.72,2.65-25.66,3.73-30.95,6.37,2.28,16,.48,19.73-3.75C214.63,356.21,217.26,374.53,214.76,384.32Z"/><path class="cls-43" d="M141.79,332.19c-2.63.09-16,3.76-22.2,4.55s-20.37,1.3-19.06-5.51,9.09-9.8,13.46-11.45c3.63-1.38,8-6,9.36-7.47,5.75,1.69,13.51,2.6,17.26,1.59C140.79,319.66,144.19,332.11,141.79,332.19Z"/><path class="cls-44" d="M196.85,365.05s7.16-2.27,11,0-8.65.35-11,4.2,9.35-.53,10.31,3.58-5.59,1.05-10,2.27"/><path class="cls-45" d="M109.12,321.83a10.39,10.39,0,0,1,3.74,4c1.22,2.53,3.84.52,2.62-2.45s-1.81-6.47.31-6.21,2.92,6.56,5.28,6-.17-6.91-2.1-8.13"/><path class="cls-8" d="M210.14,207.29l-5.78,16.78c-38.45,21.68-60.47,86.7-62.23,89.15a4.48,4.48,0,0,1-1.52.68,12.38,12.38,0,0,1-2.35.36c.71-11.61,10.92-25.39,12.79-35.21,2.1-11,11.28-18.09,16.78-33.83s13.9-12.58,21.66-23.86S210.14,207.29,210.14,207.29Z"/><path class="cls-8" d="M357.38,132.8a6.44,6.44,0,0,0-1.2-4.55,14.09,14.09,0,0,0,4.44-8C362.73,125.18,359.33,130.38,357.38,132.8Z"/><path class="cls-6" d="M163.29,104.74h0a1.44,1.44,0,0,1-1.74-1.06L143.46,29.6a1.44,1.44,0,0,1,1.06-1.74h0a1.44,1.44,0,0,1,1.74,1.06L164.35,103A1.44,1.44,0,0,1,163.29,104.74Z"/><path class="cls-46" d="M152.52,75.12s7.13,1.13,7.89,3.76,2.62,12.39,0,13.05-8.36-.38-9.3-2.72S148.65,74.16,152.52,75.12Z"/><line class="cls-47" x1="144.69" y1="29.26" x2="148.32" y2="22.12"/><rect class="cls-6" x="148.76" y="10.13" width="9.3" height="14.37" rx="1.55" transform="translate(53.23 -100.15) rotate(43.1)"/><rect class="cls-6" x="153.56" y="18.01" width="9.3" height="7.61" rx="1.13" transform="translate(57.59 -102.22) rotate(43.1)"/><rect class="cls-6" x="157.5" y="-1.15" width="1.69" height="12.77" transform="translate(46.31 -106.78) rotate(43.1)"/><path class="cls-48" d="M174.52,14.16l2.13,1.11-2.36.43a3.47,3.47,0,0,0-2.48,1.82l-1.11,2.13-.43-2.36a3.47,3.47,0,0,0-1.82-2.48l-2.13-1.11,2.37-.43a3.47,3.47,0,0,0,2.47-1.82l1.11-2.13.43,2.37A3.47,3.47,0,0,0,174.52,14.16Z"/><path class="cls-49" d="M161.4,35l1.11.58-1.23.22a1.82,1.82,0,0,0-1.28.94l-.57,1.11-.22-1.23a1.81,1.81,0,0,0-1-1.28l-1.1-.58,1.22-.22a1.81,1.81,0,0,0,1.29-.94l.57-1.1.22,1.22A1.8,1.8,0,0,0,161.4,35Z"/><line class="cls-22" x1="165.35" y1="24.81" x2="183.51" y2="35.18"/><line class="cls-22" x1="162.51" y1="28.57" x2="166.32" y2="35.18"/><path class="cls-6" d="M258,104.41a1.16,1.16,0,1,1-.7-1.69A1.31,1.31,0,0,1,258,104.41Z"/><path class="cls-6" d="M251.52,103a1.32,1.32,0,0,1-1.47,1.09,1.48,1.48,0,1,1,1.47-1.09Z"/><path class="cls-23" d="M251.59,110.15l8.83-1.89s.73,4.33-3.43,5.17S251.59,110.15,251.59,110.15Z"/><path class="cls-8" d="M279,184.39c-3.32,10.49,2.09,36.19-4.37,46.33.15-4.15-2.38-9.25-6.48-13.6,5.12-15.2,2.19-36.78,10.2-46.31,9.95-11.83,11.34-8.33,11.34-8.33S282.32,173.9,279,184.39Z"/><path class="cls-8" d="M243,119.57c4.26.21,7.59.69,9.13,1.76-5.33,1.48-7.14,17.24-14.29,26.39.46-6.08,6.32-15.3,5.89-19.6C243.42,125,243.15,121.62,243,119.57Z"/><path class="cls-8" d="M279.2,132.31c-4.65,3.33-9.38,9.59-13.05,16.46a9.78,9.78,0,0,1-3.25,3.49c2.3-6.32,4.73-10.91,6.18-14.72,2.6-6.79.15-10.94,0-11.17A52.48,52.48,0,0,0,279.2,132.31Z"/><path class="cls-8" d="M264.84,125.06a11.52,11.52,0,0,1-1.14-1.16c-1.89-2.2-9.64-3-12.55-3.15,0-.63,0-1.21,0-1.69a15.39,15.39,0,0,0,13.7,0C264.56,121.34,265.11,123.37,264.84,125.06Z"/><path class="cls-8" d="M267.34,100.55a39.76,39.76,0,0,1-19.84-2.06,23.14,23.14,0,0,1,2.21-2.66c3.14,4.26,15.72.72,17.3,2.69A2.67,2.67,0,0,1,267.34,100.55Z"/></g><path class="cls-33" d="M331.56,226.71,320,238.32v21.79a3.75,3.75,0,0,1-3.75,3.76H230.8a3.76,3.76,0,0,1-3.76-3.76V228.3a3.75,3.75,0,0,1,3.75-3.75h99.88A1.26,1.26,0,0,1,331.56,226.71Z"/><path class="cls-50" d="M253.58,243.21a6,6,0,1,1-6-6A6,6,0,0,1,253.58,243.21Z"/><line class="cls-32" x1="265.6" y1="237.76" x2="303.29" y2="237.76"/><line class="cls-32" x1="265.6" y1="241.27" x2="278.38" y2="241.27"/><line class="cls-32" x1="283.24" y1="241.27" x2="297.28" y2="241.27"/><line class="cls-32" x1="265.6" y1="245.4" x2="290.26" y2="245.4"/><line class="cls-32" x1="265.6" y1="248.65" x2="296.41" y2="248.65"/><path class="cls-51" d="M82,124.1l11.62,11.61v21.8a3.75,3.75,0,0,0,3.75,3.75h85.4a3.76,3.76,0,0,0,3.76-3.76V125.7a3.75,3.75,0,0,0-3.76-3.75H82.91A1.26,1.26,0,0,0,82,124.1Z"/><path class="cls-23" d="M122.31,140.6a6,6,0,1,1-6-6A6,6,0,0,1,122.31,140.6Z"/><line class="cls-32" x1="134.33" y1="135.15" x2="172.02" y2="135.15"/><line class="cls-32" x1="134.33" y1="138.66" x2="147.1" y2="138.66"/><line class="cls-32" x1="151.97" y1="138.66" x2="166.01" y2="138.66"/><line class="cls-32" x1="134.33" y1="142.79" x2="158.99" y2="142.79"/><line class="cls-32" x1="134.33" y1="146.05" x2="165.13" y2="146.05"/><rect class="cls-6" x="120.86" y="191.76" width="83.2" height="36.99" rx="3.09"/><path class="cls-23" d="M159,206.11h0a2.74,2.74,0,0,1,0,3.86l-5,5a1.09,1.09,0,0,1-1.53,0l-5-5a2.72,2.72,0,0,1,0-3.86h0a2.72,2.72,0,0,1,3.86,0l1.93,1.93,1.93-1.93A2.72,2.72,0,0,1,159,206.11Z"/><path class="cls-52" d="M179.77,205.71v7.13a.36.36,0,0,1-.37.36h-7a.36.36,0,0,0-.26.11l-2.4,2.4a.37.37,0,0,1-.63-.26v-9.74a.37.37,0,0,1,.37-.37h9.89A.37.37,0,0,1,179.77,205.71Z"/><path class="cls-53" d="M56.19,43.74h75.56s-3.13-13-19.91-13-14.77-17-33.81-17S56.19,30.22,56.19,30.22s-21,.5-21,13.52Z"/><path class="cls-54" d="M263.47,361.79H187.91s3.13-13,19.91-13,14.77-17,33.81-17,21.84,16.53,21.84,16.53,21,.5,21,13.52Z"/><path class="cls-55" d="M497.23,96.38H421.67s3.13-13,19.91-13,14.78-17,33.81-17,21.84,16.53,21.84,16.53,21,.5,21,13.52Z"/></g></g></g></svg>